<svg width="589" height="589" fill="none" xmlns="http://www.w3.org/2000/svg"><circle opacity=".2" cx="294" cy="294" r="280" fill="#fff" fill-opacity=".1" stroke="#fff" stroke-width="2"/><path opacity=".2" fill-rule="evenodd" clip-rule="evenodd" d="M185.925 552.304L400.228 34.931l1.847.766-214.302 517.372-1.848-.765z" fill="#fff"/><path opacity=".2" fill-rule="evenodd" clip-rule="evenodd" d="M400.228 553.069L185.925 35.696l1.848-.765 214.302 517.373-1.847.765z" fill="#fff"/><path opacity=".2" fill-rule="evenodd" clip-rule="evenodd" d="M552.304 402.075L34.931 187.772l.766-1.847 517.372 214.302-.765 1.848z" fill="#fff"/><path opacity=".2" fill-rule="evenodd" clip-rule="evenodd" d="M553.069 187.772L35.696 402.075l-.765-1.848 517.373-214.302.765 1.847z" fill="#fff"/><g filter="url(#filter0_d)"><path fill-rule="evenodd" clip-rule="evenodd" d="M574.262 269.576a282.793 282.793 0 0 1-.548 55.09l-1.989-.215a280.682 280.682 0 0 0 .545-54.7l1.992-.175z" fill="url(#paint0_linear)"/></g><g filter="url(#filter1_d)"><path fill-rule="evenodd" clip-rule="evenodd" d="M14.085 269.29a282.707 282.707 0 0 0 .548 55.09l1.989-.215a280.706 280.706 0 0 1-.545-54.7l-1.992-.175z" fill="url(#paint1_linear)"/></g><g filter="url(#filter2_d)"><path fill-rule="evenodd" clip-rule="evenodd" d="M509.602 474.654a282.759 282.759 0 0 1-39.342 38.567l-1.254-1.558a280.648 280.648 0 0 0 39.063-38.294l1.533 1.285z" fill="url(#paint2_linear)"/></g><g filter="url(#filter3_d)"><path fill-rule="evenodd" clip-rule="evenodd" d="M113.699 78.347a282.697 282.697 0 0 0-38.566 39.342l1.558 1.254a280.722 280.722 0 0 1 38.293-39.063l-1.285-1.533z" fill="url(#paint3_linear)"/></g><g filter="url(#filter4_d)"><path fill-rule="evenodd" clip-rule="evenodd" d="M473.85 77.55a282.72 282.72 0 0 1 38.566 39.341l-1.557 1.255a280.7 280.7 0 0 0-38.294-39.064l1.285-1.533z" fill="url(#paint4_linear)"/></g><g filter="url(#filter5_d)"><path fill-rule="evenodd" clip-rule="evenodd" d="M77.543 473.452a282.67 282.67 0 0 0 39.342 38.566l1.254-1.557a280.76 280.76 0 0 1-39.064-38.294l-1.532 1.285z" fill="url(#paint5_linear)"/></g><g filter="url(#filter6_d)"><path fill-rule="evenodd" clip-rule="evenodd" d="M318.519 574.222a282.707 282.707 0 0 1-55.089-.594l.216-1.988a280.675 280.675 0 0 0 54.699.589l.174 1.993z" fill="url(#paint6_linear)"/></g><g filter="url(#filter7_d)"><path fill-rule="evenodd" clip-rule="evenodd" d="M317.088 14.114a282.696 282.696 0 0 0-55.09.484l.212 1.99a280.696 280.696 0 0 1 54.7-.482l.178-1.992z" fill="url(#paint7_linear)"/></g><path opacity=".2" d="M507.982 298.766c0 120.122-97.154 217.5-217 217.5s-217-97.378-217-217.5 97.154-217.5 217-217.5 217 97.378 217 217.5z" fill="url(#paint8_radial)"/><defs><filter id="filter0_d" x="558.725" y="256.576" width="29.622" height="81.09" filterUnits="userSpaceOnUse" color-interpolation-filters="sRGB"><feFlood flood-opacity="0" result="BackgroundImageFix"/><feColorMatrix in="SourceAlpha" values="0 0 0 0 0 0 0 0 0 0 0 0 0 0 0 0 0 0 127 0"/><feOffset/><feGaussianBlur stdDeviation="6.5"/><feColorMatrix values="0 0 0 0 1 0 0 0 0 0.341176 0 0 0 0 0.619608 0 0 0 1 0"/><feBlend in2="BackgroundImageFix" result="effect1_dropShadow"/><feBlend in="SourceGraphic" in2="effect1_dropShadow" result="shape"/></filter><filter id="filter1_d" x="0" y="256.29" width="29.622" height="81.09" filterUnits="userSpaceOnUse" color-interpolation-filters="sRGB"><feFlood flood-opacity="0" result="BackgroundImageFix"/><feColorMatrix in="SourceAlpha" values="0 0 0 0 0 0 0 0 0 0 0 0 0 0 0 0 0 0 127 0"/><feOffset/><feGaussianBlur stdDeviation="6.5"/><feColorMatrix values="0 0 0 0 1 0 0 0 0 0.341176 0 0 0 0 0.619608 0 0 0 1 0"/><feBlend in2="BackgroundImageFix" result="effect1_dropShadow"/><feBlend in="SourceGraphic" in2="effect1_dropShadow" result="shape"/></filter><filter id="filter2_d" x="455.854" y="459.86" width="67.515" height="67.515" filterUnits="userSpaceOnUse" color-interpolation-filters="sRGB"><feFlood flood-opacity="0" result="BackgroundImageFix"/><feColorMatrix in="SourceAlpha" values="0 0 0 0 0 0 0 0 0 0 0 0 0 0 0 0 0 0 127 0"/><feOffset/><feGaussianBlur stdDeviation="6.5"/><feColorMatrix values="0 0 0 0 1 0 0 0 0 0.341176 0 0 0 0 0.619608 0 0 0 1 0"/><feBlend in2="BackgroundImageFix" result="effect1_dropShadow"/><feBlend in="SourceGraphic" in2="effect1_dropShadow" result="shape"/></filter><filter id="filter3_d" x="60.978" y="64.58" width="67.515" height="67.515" filterUnits="userSpaceOnUse" color-interpolation-filters="sRGB"><feFlood flood-opacity="0" result="BackgroundImageFix"/><feColorMatrix in="SourceAlpha" values="0 0 0 0 0 0 0 0 0 0 0 0 0 0 0 0 0 0 127 0"/><feOffset/><feGaussianBlur stdDeviation="6.5"/><feColorMatrix values="0 0 0 0 1 0 0 0 0 0.341176 0 0 0 0 0.619608 0 0 0 1 0"/><feBlend in2="BackgroundImageFix" result="effect1_dropShadow"/><feBlend in="SourceGraphic" in2="effect1_dropShadow" result="shape"/></filter><filter id="filter4_d" x="459.056" y="63.782" width="67.515" height="67.515" filterUnits="userSpaceOnUse" color-interpolation-filters="sRGB"><feFlood flood-opacity="0" result="BackgroundImageFix"/><feColorMatrix in="SourceAlpha" values="0 0 0 0 0 0 0 0 0 0 0 0 0 0 0 0 0 0 127 0"/><feOffset/><feGaussianBlur stdDeviation="6.5"/><feColorMatrix values="0 0 0 0 1 0 0 0 0 0.341176 0 0 0 0 0.619608 0 0 0 1 0"/><feBlend in2="BackgroundImageFix" result="effect1_dropShadow"/><feBlend in="SourceGraphic" in2="effect1_dropShadow" result="shape"/></filter><filter id="filter5_d" x="63.775" y="458.658" width="67.515" height="67.515" filterUnits="userSpaceOnUse" color-interpolation-filters="sRGB"><feFlood flood-opacity="0" result="BackgroundImageFix"/><feColorMatrix in="SourceAlpha" values="0 0 0 0 0 0 0 0 0 0 0 0 0 0 0 0 0 0 127 0"/><feOffset/><feGaussianBlur stdDeviation="6.5"/><feColorMatrix values="0 0 0 0 1 0 0 0 0 0.341176 0 0 0 0 0.619608 0 0 0 1 0"/><feBlend in2="BackgroundImageFix" result="effect1_dropShadow"/><feBlend in="SourceGraphic" in2="effect1_dropShadow" result="shape"/></filter><filter id="filter6_d" x="250.43" y="558.64" width="81.089" height="29.647" filterUnits="userSpaceOnUse" color-interpolation-filters="sRGB"><feFlood flood-opacity="0" result="BackgroundImageFix"/><feColorMatrix in="SourceAlpha" values="0 0 0 0 0 0 0 0 0 0 0 0 0 0 0 0 0 0 127 0"/><feOffset/><feGaussianBlur stdDeviation="6.5"/><feColorMatrix values="0 0 0 0 1 0 0 0 0 0.341176 0 0 0 0 0.619608 0 0 0 1 0"/><feBlend in2="BackgroundImageFix" result="effect1_dropShadow"/><feBlend in="SourceGraphic" in2="effect1_dropShadow" result="shape"/></filter><filter id="filter7_d" x="248.998" y="0" width="81.09" height="29.587" filterUnits="userSpaceOnUse" color-interpolation-filters="sRGB"><feFlood flood-opacity="0" result="BackgroundImageFix"/><feColorMatrix in="SourceAlpha" values="0 0 0 0 0 0 0 0 0 0 0 0 0 0 0 0 0 0 127 0"/><feOffset/><feGaussianBlur stdDeviation="6.5"/><feColorMatrix values="0 0 0 0 1 0 0 0 0 0.341176 0 0 0 0 0.619608 0 0 0 1 0"/><feBlend in2="BackgroundImageFix" result="effect1_dropShadow"/><feBlend in="SourceGraphic" in2="effect1_dropShadow" result="shape"/></filter><linearGradient id="paint0_linear" x1="572.821" y1="272.712" x2="572.532" y2="320.778" gradientUnits="userSpaceOnUse"><stop stop-color="#9F72FF" stop-opacity="0"/><stop offset=".5" stop-color="#C5B4E4"/><stop offset="1" stop-color="#BD96EF" stop-opacity="0"/></linearGradient><linearGradient id="paint1_linear" x1="15.526" y1="272.425" x2="15.814" y2="320.492" gradientUnits="userSpaceOnUse"><stop stop-color="#9F72FF" stop-opacity="0"/><stop offset=".5" stop-color="#C5B4E4"/><stop offset="1" stop-color="#BD96EF" stop-opacity="0"/></linearGradient><linearGradient id="paint2_linear" x1="506.366" y1="475.852" x2="472.174" y2="509.636" gradientUnits="userSpaceOnUse"><stop stop-color="#9F72FF" stop-opacity="0"/><stop offset=".5" stop-color="#C5B4E4"/><stop offset="1" stop-color="#BD96EF" stop-opacity="0"/></linearGradient><linearGradient id="paint3_linear" x1="112.501" y1="81.583" x2="78.717" y2="115.775" gradientUnits="userSpaceOnUse"><stop stop-color="#9F72FF" stop-opacity="0"/><stop offset=".5" stop-color="#C5B4E4"/><stop offset="1" stop-color="#BD96EF" stop-opacity="0"/></linearGradient><linearGradient id="paint4_linear" x1="475.048" y1="80.785" x2="508.832" y2="114.977" gradientUnits="userSpaceOnUse"><stop stop-color="#9F72FF" stop-opacity="0"/><stop offset=".5" stop-color="#C5B4E4"/><stop offset="1" stop-color="#BD96EF" stop-opacity="0"/></linearGradient><linearGradient id="paint5_linear" x1="80.778" y1="474.65" x2="114.97" y2="508.434" gradientUnits="userSpaceOnUse"><stop stop-color="#9F72FF" stop-opacity="0"/><stop offset=".5" stop-color="#C5B4E4"/><stop offset="1" stop-color="#BD96EF" stop-opacity="0"/></linearGradient><linearGradient id="paint6_linear" x1="315.385" y1="572.779" x2="267.319" y2="572.451" gradientUnits="userSpaceOnUse"><stop stop-color="#9F72FF" stop-opacity="0"/><stop offset=".5" stop-color="#C5B4E4"/><stop offset="1" stop-color="#BD96EF" stop-opacity="0"/></linearGradient><linearGradient id="paint7_linear" x1="313.951" y1="15.551" x2="265.884" y2="15.784" gradientUnits="userSpaceOnUse"><stop stop-color="#9F72FF" stop-opacity="0"/><stop offset=".5" stop-color="#C5B4E4"/><stop offset="1" stop-color="#BD96EF" stop-opacity="0"/></linearGradient><radialGradient id="paint8_radial" cx="0" cy="0" r="1" gradientUnits="userSpaceOnUse" gradientTransform="matrix(0 217.5 -217 0 290.982 298.766)"><stop stop-color="#fff"/><stop offset="1" stop-color="#9F72FF" stop-opacity="0"/></radialGradient></defs></svg>