<svg width="39" height="30" fill="none" xmlns="http://www.w3.org/2000/svg"><path d="M.855 14.119a.868.868 0 0 0-.855.877c0 .483.384.877.855.877h1.818V14.12H.855zM.855 3.948A.868.868 0 0 0 0 4.825c0 .483.384.878.855.878h1.818V3.948H.855zM.855 24.297a.868.868 0 0 0-.855.878c0 .483.384.877.855.877h1.818v-1.755H.855zM.862 9.033a.868.868 0 0 0-.855.878c0 .483.384.877.855.877h1.811V9.033H.863zM.862 19.212a.868.868 0 0 0-.855.877c0 .484.384.878.855.878h1.811v-1.755H.863z" fill="#997FBF"/><path d="M28.21 11.487h-4.788c-1.891 0-3.427 1.576-3.427 3.517 0 1.94 1.536 3.516 3.427 3.516h4.788a.968.968 0 0 0 .957-.98v-5.071a.968.968 0 0 0-.957-.982z" fill="#997FBF" stroke="#674C91" stroke-width="18.158" stroke-miterlimit="10" stroke-linecap="round" stroke-linejoin="round"/><path d="M2.673 2.944v1.004h1.913c.47 0 .855.394.855.877a.868.868 0 0 1-.855.878H2.673v3.33h1.92c.471 0 .855.395.855.878a.868.868 0 0 1-.855.877h-1.92v3.331h1.913c.47 0 .855.394.855.877a.868.868 0 0 1-.855.878H2.673v3.33h1.92c.471 0 .855.395.855.878s-.384.884-.855.884h-1.92v3.331h1.913c.47 0 .855.395.855.878a.868.868 0 0 1-.855.877H2.673v1.004c0 1.62 1.29 2.944 2.87 2.944h2.426V0H5.542C3.956 0 2.673 1.323 2.673 2.944z" fill="#674C91"/><path d="M23.19 21.145c-3.303 0-5.984-2.758-5.984-6.141s2.688-6.142 5.984-6.142h2.978V.877A.868.868 0 0 0 25.313 0H9.68v30h15.634c.471 0 .855-.394.855-.877v-7.978H23.19z" fill="#F57F20"/><path d="M23.335 16.387c.744 0 1.347-.62 1.347-1.383 0-.764-.603-1.383-1.347-1.383s-1.348.619-1.348 1.383.604 1.383 1.348 1.383z" fill="#674C91"/></svg>