<svg width="24" height="37" fill="none" xmlns="http://www.w3.org/2000/svg"><path d="M1.618 3.474C1.618 2.66 2.355 2 3.245 2h17.502c.898 0 1.626.66 1.626 1.474L19.315 33.42c0 .813-.737 1.474-1.627 1.474H6.295c-.898 0-1.627-.66-1.627-1.474L1.618 3.474z" fill="#674C91" stroke="#674C91" stroke-width="2.23" stroke-miterlimit="10" stroke-linecap="round" stroke-linejoin="round"/><path d="M21.28 25.177H2.711L1 8.37h22l-1.72 16.807z" fill="#F57F20"/><path d="M14.995 12.31h7.598l-.195 1.948h-7.403a.969.969 0 0 1-.975-.974c0-.543.432-.975.975-.975z" fill="#674C91"/></svg>