<svg width="38" height="34" fill="none" xmlns="http://www.w3.org/2000/svg"><path d="M37.026 9.32L27.833.974H8.473L.973 9.32l6.281 2.049-5.722 3.233 17.455 18.116.008-.068.017.068 17.456-18.116-5.723-3.233 6.281-2.049z" fill="#674C91" stroke="#674C91" stroke-width="1.947" stroke-miterlimit="10" stroke-linecap="round" stroke-linejoin="round"/><path d="M18.996 32.65L8.474.974h19.36L18.995 32.65z" fill="#462866"/><path d="M23.414 2.582l-5.189 3.005-5.189-3.005v7.34l5.19-3.006 5.188 3.005V2.582zM28.4 19.495a3.276 3.276 0 1 0 0-6.552 3.276 3.276 0 0 0 0 6.552z" fill="#F57F20"/><path fill-rule="evenodd" clip-rule="evenodd" d="M26.538 16.16l2.582-1.481v-.593l-3.098 1.778v.592l3.098 1.778 1.55-.889v-.592l-1.55.889-2.582-1.482zm3.615-.288l-1.55.89.517.295 1.033-.592v-.593zm-.516-.889L27.57 16.17l.516.296 1.55-.889v-.593z" fill="#674C91"/></svg>