<svg width="44" height="35" fill="none" xmlns="http://www.w3.org/2000/svg"><path d="M41.125 33.045H28.03c-1.383 0-2.514-1.098-2.514-2.44v-27.1c0-1.341 1.131-2.44 2.514-2.44h13.094c1.382 0 2.513 1.099 2.513 2.44v27.1c0 1.342-1.13 2.44-2.513 2.44z" fill="#674C91"/><path d="M37.593 4.08h-3.482a.872.872 0 1 1 0-1.746h3.482a.872.872 0 1 1 0 1.745zM31.501 4.08h-.873a.872.872 0 1 1 0-1.746h.873a.872.872 0 1 1 0 1.745zM34.112 27.01c1.224 0 2.22.996 2.22 2.22 0 1.225-.996 2.22-2.22 2.22a2.221 2.221 0 0 1-2.22-2.22c0-1.224.995-2.22 2.22-2.22z" fill="#fff"/><path d="M41.506 5.33H27.65v20.253h13.857V5.33z" fill="#442E72"/><path d="M11.482 10.523L1 19.984l13.517 14.979L25 25.5 11.482 10.523z" fill="#674C91"/><path d="M15.599 26.4a4.868 4.868 0 1 0-6.523-7.228 4.868 4.868 0 0 0 6.523 7.228z" fill="#997FBF" stroke="#674C91" stroke-width="1.515" stroke-miterlimit="10" stroke-linecap="round" stroke-linejoin="round"/><path d="M22.847 3.825L8.09 9.44l8.024 21.088 14.757-5.615-8.024-21.088z" fill="#997FBF" stroke="#674C91" stroke-width="1.76" stroke-miterlimit="10" stroke-linecap="round" stroke-linejoin="round"/><path d="M21.65 22.86a6.115 6.115 0 1 0-4.35-11.432 6.115 6.115 0 0 0 4.35 11.432z" fill="#F57F20"/></svg>