<svg width="38" height="29" fill="none" xmlns="http://www.w3.org/2000/svg"><path d="M18.409 28.055H7.224a.623.623 0 0 1-.618-.55l-.404-3.625-.859 3.693a.623.623 0 0 1-.601.482H1.005a.618.618 0 0 1-.49-.241.59.59 0 0 1-.111-.533l2.293-9.423c1.22-4.072 5.163-6.778 9.372-6.451 9.973.764 17.206.902 20.359.386a2.163 2.163 0 0 1 2.147.937 2.19 2.19 0 0 1 .292 1.787 2.16 2.16 0 0 1-1.134 1.374c-2.465 1.194-7.464 3.084-13.795 2.697l-.91 8.908a.623.623 0 0 1-.62.559z" fill="#674C91"/><path d="M13.168 24.876a.71.71 0 0 1-.54-.258l-3.342-4.037a2.713 2.713 0 0 1-.413-2.766c.37-.902 1.16-1.495 2.105-1.59.79-.076 1.59.164 2.182.662a2.998 2.998 0 0 1 2.182-.661c.953.094 1.735.696 2.104 1.59a2.713 2.713 0 0 1-.412 2.765l-3.342 4.037a.64.64 0 0 1-.524.258z" fill="#997FBF"/><path d="M13.658 10.54A5.204 5.204 0 0 1 8.46 5.341 5.204 5.204 0 0 1 13.658.145a5.199 5.199 0 0 1 5.197 5.197 5.199 5.199 0 0 1-5.197 5.197z" fill="#674C91"/><path d="M26.947 10.54a4.81 4.81 0 0 1-4.802-4.803A4.81 4.81 0 0 1 26.947.936a4.803 4.803 0 0 1 0 9.603zM37.264 28.054h-4.072a.552.552 0 0 1-.498-.317l-.98-2.122v1.89c0 .309-.249.55-.55.55h-8.46a.572.572 0 0 1-.413-.181.566.566 0 0 1-.137-.43l.309-6.433a.55.55 0 0 1 .55-.499c.068 0 6.7-.034 11.261-2.645a.557.557 0 0 1 .481-.035c.155.06.275.198.327.352l2.714 9.149a.555.555 0 0 1-.086.49.543.543 0 0 1-.446.231z" fill="#F57F20"/></svg>