<svg width="36" height="29" fill="none" xmlns="http://www.w3.org/2000/svg"><path d="M10.344 27.73h-6.43a1.572 1.572 0 0 1-1.571-1.572v-1.527c0-.868.703-1.572 1.571-1.572h6.43c.868 0 1.571.704 1.571 1.572v1.527c0 .868-.71 1.572-1.571 1.572zM31.853 27.73h-6.885a1.571 1.571 0 0 1-1.572-1.572v-1.527c0-.868.703-1.572 1.572-1.572h6.885c.869 0 1.572.704 1.572 1.572v1.527c0 .868-.71 1.572-1.572 1.572z" fill="#674C91" stroke="#674C91" stroke-width="1.721" stroke-miterlimit="10" stroke-linecap="round" stroke-linejoin="round"/><path d="M3.66 9.46a28.183 28.183 0 0 0 5.478 2.298l-.584-1.272a.859.859 0 0 1 .42-1.145.859.859 0 0 1 1.144.419l1.183 2.552c2.043.449 4.154.673 6.287.673h.322c2.058 0 4.139-.21 6.16-.606l1.212-2.62a.859.859 0 0 1 1.145-.418.859.859 0 0 1 .42 1.145l-.652 1.4a28.602 28.602 0 0 0 4.843-1.767c.426-.247.83-.48 1.204-.711a4.982 4.982 0 0 0-1.212-.15H4.984a4.95 4.95 0 0 0-1.34.187c0 .008.008.015.015.015zM2.185 10.605c-.18-.044-.336-.082-.464-.12A4.959 4.959 0 0 0 0 14.244v5.187h12.686l-2.604-5.621a30.122 30.122 0 0 1-7.897-3.204zM34.241 10.448c-.082.023-.172.045-.284.075a.656.656 0 0 1-.075.045l-.045.022c-2.53 1.482-5.478 2.598-8.585 3.301l-2.56 5.539H36v-5.187a4.96 4.96 0 0 0-1.759-3.795z" fill="#F57F20"/><path d="M0 21.151a3.933 3.933 0 0 0 3.93 3.855h8.913V21.15H0zM22.528 21.151v3.855h9.543A3.933 3.933 0 0 0 36 21.15H22.528zM20.814 21.151h-6.242v3.855h6.242V21.15z" fill="#674C91"/><path d="M5.778 18.823a2.485 2.485 0 1 0 0-4.97 2.485 2.485 0 0 0 0 4.97zM30.274 18.823a2.485 2.485 0 1 0 0-4.97 2.485 2.485 0 0 0 0 4.97z" fill="#fff"/><path d="M2.043 8.435c.195.015.39.097.539.247l.3.3.007.007a.941.941 0 0 1 .389.247c.127.075.247.157.382.232C7.859 11.78 12.656 13 17.58 13h.323c4.565 0 9.235-1.032 13.127-2.866a46.554 46.554 0 0 0 2.448-1.497c.052-.045.112-.082.164-.112.307-.202.584-.397.838-.577a1.6 1.6 0 0 0-.448-.92l-1.13-1.13a1.613 1.613 0 0 0-2.268 0l-.584.583c-.038-.074-.068-.142-.105-.217-.733-1.481-1.497-2.956-2.193-4.453C27.34.928 26.69.464 25.74.374c-1.288-.12-2.575-.3-3.87-.337C20.664.007 18.943 0 17.738 0s-2.403.007-3.6.045c-1.295.037-2.582.217-3.87.337-.95.09-1.601.546-2.013 1.437-.696 1.497-1.46 2.971-2.193 4.453-.037.067-.067.142-.105.217l-.583-.584a1.613 1.613 0 0 0-2.268 0L1.976 7.02a1.6 1.6 0 0 0-.464 1.048c.164.12.344.24.531.367z" fill="#674C91"/><path d="M17.903 14.714H17.573a30.85 30.85 0 0 1-5.396-.471l2.305 4.984c.03.06.053.128.06.195h6.272a.838.838 0 0 1 .06-.195l2.29-4.947a31.724 31.724 0 0 1-5.261.434z" fill="#F57F20"/></svg>