<svg width="44" height="39" fill="none" xmlns="http://www.w3.org/2000/svg"><g clip-path="url(#clip0)"><path d="M19.006 3.96L.897 6.865l4.111 25.644 18.11-2.903-4.112-25.644z" fill="#674C91" stroke="#674C91" stroke-width="1.797" stroke-miterlimit="10" stroke-linecap="round" stroke-linejoin="round"/><path d="M7.636 14.455a3.28 3.28 0 1 0-1.039-6.478 3.28 3.28 0 0 0 1.039 6.478zM8.838 21.97A3.28 3.28 0 1 0 7.8 15.49a3.28 3.28 0 0 0 1.038 6.48zM10.043 29.492a3.28 3.28 0 1 0-1.04-6.479 3.28 3.28 0 0 0 1.04 6.479zM15.307 13.23a3.28 3.28 0 1 0-1.039-6.48 3.28 3.28 0 0 0 1.039 6.48zM16.517 20.742a3.28 3.28 0 1 0-1.039-6.478 3.28 3.28 0 0 0 1.04 6.478zM17.72 28.257a3.28 3.28 0 1 0-1.039-6.479 3.28 3.28 0 0 0 1.039 6.479z" fill="#674C91" stroke="#674C91" stroke-width=".078" stroke-miterlimit="10"/><path d="M28.752 2.382h-18.34v25.972h18.34V2.382z" fill="#F57F20" stroke="#F57F20" stroke-width="1.797" stroke-miterlimit="10" stroke-linecap="round" stroke-linejoin="round"/><path d="M15.856 10.943a3.28 3.28 0 1 0 0-6.561 3.28 3.28 0 0 0 0 6.561zM15.856 18.559a3.28 3.28 0 1 0 0-6.561 3.28 3.28 0 0 0 0 6.56zM15.856 26.174a3.28 3.28 0 1 0 0-6.56 3.28 3.28 0 0 0 0 6.56zM23.628 10.943a3.28 3.28 0 1 0 0-6.56 3.28 3.28 0 0 0 0 6.56zM23.628 18.559a3.28 3.28 0 1 0 0-6.561 3.28 3.28 0 0 0 0 6.56zM23.628 26.174a3.28 3.28 0 1 0 0-6.56 3.28 3.28 0 0 0 0 6.56z" fill="#F57F20" stroke="#F57F20" stroke-width=".078" stroke-miterlimit="10"/><path d="M40.832 12.652L23.875 5.664 13.98 29.677l16.957 6.988 9.895-24.013z" fill="#997FBF" stroke="#674C91" stroke-width="1.797" stroke-miterlimit="10" stroke-linecap="round" stroke-linejoin="round"/><path d="M29.935 13.87a3.28 3.28 0 1 0-6.066-2.5 3.28 3.28 0 0 0 6.066 2.5z" fill="#674C91"/><path d="M27.032 20.914a3.28 3.28 0 1 0-6.067-2.5 3.28 3.28 0 0 0 6.067 2.5z" fill="#F57F20"/><path d="M24.132 27.95a3.28 3.28 0 1 0-6.067-2.5 3.28 3.28 0 0 0 6.067 2.5z" fill="#674C91"/><path d="M37.121 16.832a3.28 3.28 0 1 0-6.066-2.5 3.28 3.28 0 0 0 6.066 2.5z" fill="#F57F20"/><path d="M34.221 23.869a3.28 3.28 0 1 0-6.066-2.5 3.28 3.28 0 0 0 6.066 2.5z" fill="#674C91"/><path d="M31.318 30.912a3.28 3.28 0 1 0-6.067-2.5 3.28 3.28 0 0 0 6.067 2.5z" fill="#F57F20"/></g><defs><clipPath id="clip0"><path fill="#fff" d="M0 0h43.179v39H0z"/></clipPath></defs></svg>