<svg width="35" height="35" fill="none" xmlns="http://www.w3.org/2000/svg"><path d="M21.537 5.606h-9.234V3.078c0-.568.465-1.023 1.023-1.023h15.519c.567 0 1.023.464 1.023 1.023v12.715h2.055V3.078A3.086 3.086 0 0 0 28.845 0h-15.51a3.086 3.086 0 0 0-3.078 3.078v2.528H1.024A1.02 1.02 0 0 0 0 6.628v27.348A1.02 1.02 0 0 0 1.024 35h20.513a1.02 1.02 0 0 0 1.023-1.023V6.629a1.02 1.02 0 0 0-1.023-1.023z" fill="#674C91"/><path d="M14.77 12.638a1.909 1.909 0 1 0 0-3.817 1.909 1.909 0 0 0 0 3.817zM19.577 11.753a1.023 1.023 0 1 0 0-2.046 1.023 1.023 0 0 0 0 2.046z" fill="#F57F20"/><path d="M32.61 15.579H29.19a2.396 2.396 0 0 0-2.39 2.39v6.155a1.02 1.02 0 0 0 1.023 1.023h2.055v1.024a1.02 1.02 0 0 0 1.023 1.023 1.02 1.02 0 0 0 1.023-1.023v-1.024h2.055A1.02 1.02 0 0 0 35 24.124V17.97a2.39 2.39 0 0 0-2.39-2.39z" fill="#997FBF"/><path d="M9.965 30.34l.524-5.984a.286.286 0 0 0-.077-.232.312.312 0 0 0-.224-.094H8.383a.295.295 0 0 1-.267-.164.305.305 0 0 1 .018-.31l4.195-6.026a.314.314 0 0 1 .353-.12.29.29 0 0 1 .197.31l-.524 5.983a.286.286 0 0 0 .077.232c.06.06.138.095.224.095h1.805c.112 0 .215.06.267.163a.305.305 0 0 1-.017.31l-4.196 6.026a.314.314 0 0 1-.352.12.308.308 0 0 1-.198-.309z" fill="#F57F20"/></svg>