<svg width="194" height="38" fill="none" xmlns="http://www.w3.org/2000/svg"><path fill-rule="evenodd" clip-rule="evenodd" d="M192.266 22.474c-.894 1.455-2.146 2.584-3.759 3.385-1.612.802-3.468 1.202-5.568 1.202h-8.788V7.716h8.788c2.1 0 3.956.401 5.568 1.202 1.613.802 2.865 1.93 3.759 3.386.894 1.455 1.34 3.15 1.34 5.085 0 1.934-.446 3.63-1.34 5.085zm-4.919-9.465c-1.152-1.078-2.695-1.617-4.629-1.617h-4.09v11.994h4.09c1.934 0 3.477-.54 4.629-1.617 1.151-1.078 1.727-2.538 1.727-4.38 0-1.843-.576-3.303-1.727-4.38zm-24.389 9.907h-8.981l-1.714 4.145h-4.587l8.622-19.345h4.422l8.65 19.345h-4.698l-1.714-4.145zm-4.477-10.806l-3.067 7.407h6.135l-3.068-7.407zm-19.013 14.951l-3.731-5.389H131.619v5.39h-4.477V7.715h8.374c1.713 0 3.201.286 4.463.857s2.234 1.382 2.916 2.432c.681 1.05 1.022 2.294 1.022 3.73 0 1.438-.345 2.677-1.036 3.718-.691 1.04-1.672 1.838-2.943 2.39l4.338 6.218h-4.808zm-1.133-14.826c-.7-.58-1.723-.87-3.068-.87h-3.648v6.742h3.648c1.345 0 2.368-.294 3.068-.884.7-.59 1.05-1.419 1.05-2.487 0-1.087-.35-1.92-1.05-2.501zm-32.5-4.519h14.619v3.593h-10.17v4.2h8.982v3.483h-8.982v4.477h10.53v3.592h-14.979V7.716zM88.673 27.061L80.327 7.716h4.837l5.886 13.818 5.97-13.818h4.449l-8.374 19.345h-4.422zM61.84 7.716h14.62v3.593h-10.17v4.2h8.98v3.483h-8.98v4.477h10.528v3.592H61.84V7.716z" fill="#fff"/><path fill-rule="evenodd" clip-rule="evenodd" d="M4.73 19L28.414 5.431V0L0 16.293v5.431L28.414 38l14.19-8.138v-5.43l-14.19 8.137L4.73 19zm33.144-2.707l-14.207 8.138 4.747 2.724 9.46-5.43v-5.432zm-4.73-8.155L14.207 19l4.73 2.724 14.207-8.155V8.138z" fill="#FF8A00"/></svg>